<?xml version="1.0" encoding="utf-8"?>
<!-- Generator: Adobe Illustrator 16.0.0, SVG Export Plug-In . SVG Version: 6.00 Build 0)  -->
<!DOCTYPE svg PUBLIC "-//W3C//DTD SVG 1.1//EN" "http://www.w3.org/Graphics/SVG/1.1/DTD/svg11.dtd">
<svg version="1.1" xmlns="http://www.w3.org/2000/svg" xmlns:xlink="http://www.w3.org/1999/xlink" x="0px" y="0px" width="166px"
	 height="120px" viewBox="0 0 166 120" enable-background="new 0 0 166 120" xml:space="preserve">
<g id="Ebene_1">
</g>
<g id="Ebene_2">
	<g>
		<path fill="#FFFFFF" d="M24.186,71.702h-8.292v1.452h6.762c-0.107,2.075-0.783,3.496-2.24,4.728
			c-1.635,1.317-3.577,2.045-5.466,2.045c-4.56,0-8.415-3.854-8.415-8.417c0-4.48,3.935-8.414,8.415-8.414
			c2.897,0,5.441,1.419,7.165,3.992l0.096,0.144l1.238-0.981l-0.093-0.125c-2.144-2.93-5.024-4.479-8.328-4.479
			c-5.524,0-10.018,4.458-10.018,9.942c0,5.307,4.519,9.79,9.867,9.79c2.766,0,5.491-1.163,7.291-3.111
			c1.86-2.026,2.067-4.376,2.023-6.408L24.186,71.702z"/>
		<path fill="#FFFFFF" d="M53.96,67.075c0-1.28-0.344-3.047-1.974-4.194c-1.355-0.985-2.977-0.985-4.407-0.985h-2.519v19.233h1.527
			v-8.953h0.354l6.168,8.953h1.771l-6.193-8.953C51.947,72.108,53.96,70.165,53.96,67.075 M52.434,67.023
			c0,1.167-0.463,2.209-1.274,2.86c-0.893,0.779-1.979,0.841-3.205,0.841h-1.367v-7.378h1.199c0.944,0,1.93,0.03,2.735,0.413
			C51.933,64.386,52.434,65.855,52.434,67.023"/>
		<path fill="#FFFFFF" d="M84.389,61.645c-5.401,0-9.966,4.52-9.966,9.868s4.564,9.865,9.966,9.865c5.405,0,9.97-4.517,9.97-9.865
			S89.794,61.645,84.389,61.645 M92.83,71.513c0,4.563-3.866,8.414-8.441,8.414c-4.575,0-8.439-3.852-8.439-8.414
			s3.864-8.417,8.439-8.417C88.964,63.096,92.83,66.95,92.83,71.513"/>
		<path fill="#FFFFFF" d="M126.68,73.493c0,1.699,0,3.456-0.945,4.664c-0.936,1.216-2.786,1.77-4.109,1.77s-3.172-0.554-4.112-1.77
			c-0.942-1.208-0.942-2.965-0.942-4.664V61.896h-1.528v11.946c0,1.955,0,3.646,1.322,5.273c1.243,1.415,3.21,2.262,5.261,2.262
			c2.049,0,4.016-0.847,5.266-2.268c1.313-1.621,1.313-3.313,1.313-5.268V61.896h-1.523V73.493z"/>
		<path fill="#FFFFFF" d="M157.717,63.038c-1.239-1.055-2.749-1.143-4.192-1.143h-3.497v19.231h1.527v-8.979h1.97
			c1.239,0,3.035-0.128,4.315-1.241c1.012-0.84,1.639-2.319,1.639-3.859C159.479,65.428,158.854,64.001,157.717,63.038
			 M153.575,70.7h-2.021v-7.354h1.82c1.01,0,2.27,0,3.215,0.722c0.853,0.629,1.363,1.725,1.363,2.928
			c0,1.075-0.406,2.014-1.177,2.717C155.864,70.53,154.836,70.7,153.575,70.7"/>
		<rect y="53.367" fill="#FFFFFF" width="166" height="1.121"/>
		<polygon fill-rule="evenodd" clip-rule="evenodd" fill="#FFFFFF" points="36.474,37.998 43.474,0.203 54.501,29.343 65.433,0.203 
			72.432,37.998 68.934,37.998 64.283,12.562 54.501,38.726 44.625,12.562 39.876,37.998 		"/>
		<polygon fill-rule="evenodd" clip-rule="evenodd" fill="#FFFFFF" points="106.394,37.998 106.394,0.35 124.315,27.97 
			124.315,1.295 127.615,1.295 127.615,39.089 109.666,11.47 109.666,37.998 		"/>
		<polygon fill-rule="evenodd" clip-rule="evenodd" fill="#FFFFFF" points="135.396,37.998 135.396,0.35 153.318,27.97 
			153.318,1.295 156.617,1.295 156.617,39.089 138.667,11.47 138.667,37.998 		"/>
		<path fill-rule="evenodd" clip-rule="evenodd" fill="#FFFFFF" d="M27.16,28.094l-6.486-17.929l-6.485,17.929H27.16z M7.057,37.996
			L20.579,0l13.615,37.996h-3.45l-2.387-6.594H12.99l-2.385,6.594H7.057z"/>
		<path fill-rule="evenodd" clip-rule="evenodd" fill="#FFFFFF" d="M95.209,28.094l-6.486-17.929l-6.487,17.929H95.209z
			 M75.106,37.996L88.628,0l13.616,37.996h-3.453l-2.386-6.594H81.04l-2.385,6.594H75.106z"/>
		<rect x="23.251" y="102.582" fill="#FFFFFF" width="1.343" height="12.072"/>
		<path fill="#FFFFFF" d="M28.341,108.04h0.031c0.529-0.718,1.218-1.118,2.147-1.118c2.081,0,2.561,1.504,2.561,3.264v4.469h-1.281
			v-4.242c0-1.217-0.096-2.308-1.584-2.308c-1.76,0-1.874,1.635-1.874,2.979v3.57h-1.282v-7.524h1.282V108.04z"/>
		<polygon fill="#FFFFFF" points="36.793,114.654 35.512,114.654 35.512,108.313 34.729,108.313 34.729,107.13 35.512,107.13 
			35.512,104.422 36.793,104.422 36.793,107.13 38.138,107.13 38.138,108.313 36.793,108.313 		"/>
		<path fill="#FFFFFF" d="M40.043,111.164c0.015,1.394,1.007,2.512,2.466,2.512c1.086,0,1.792-0.654,2.289-1.553l1.089,0.627
			c-0.723,1.345-1.938,2.111-3.476,2.111c-2.24,0-3.681-1.714-3.681-3.875c0-2.225,1.297-4.064,3.65-4.064
			c2.417,0,3.696,1.999,3.568,4.242H40.043z M44.606,110.076c-0.177-1.092-1.09-1.972-2.21-1.972c-1.104,0-2.13,0.88-2.289,1.972
			H44.606z"/>
		<rect x="47.743" y="101.445" fill="#FFFFFF" width="1.281" height="13.209"/>
		<rect x="51.328" y="101.445" fill="#FFFFFF" width="1.282" height="13.209"/>
		<path fill="#FFFFFF" d="M56.627,104.297c0,0.51-0.417,0.91-0.912,0.91c-0.497,0-0.912-0.4-0.912-0.91
			c0-0.498,0.416-0.914,0.912-0.914C56.21,103.383,56.627,103.799,56.627,104.297 M56.355,114.654h-1.282v-7.524h1.282V114.654z"/>
		<path fill="#FFFFFF" d="M65.721,114.284c0,1.204,0,2.243-0.769,3.236c-0.705,0.896-1.794,1.326-2.914,1.326
			c-2.097,0-3.649-1.326-3.698-3.456h1.281c0.017,1.394,1.024,2.273,2.4,2.273c1.987,0,2.419-1.458,2.419-3.153v-0.899h-0.032
			c-0.608,0.786-1.602,1.25-2.61,1.25c-2.194,0-3.586-1.84-3.586-3.939c0-2.111,1.409-4,3.635-4c1.041,0,1.953,0.462,2.561,1.28
			h0.032v-1.075h1.281V114.284z M59.524,110.813c0,1.473,0.863,2.863,2.466,2.863c1.647,0,2.514-1.326,2.514-2.849
			c0-1.503-0.946-2.723-2.531-2.723C60.485,108.104,59.524,109.4,59.524,110.813"/>
		<path fill="#FFFFFF" d="M68.89,111.164c0.016,1.394,1.007,2.512,2.466,2.512c1.086,0,1.792-0.654,2.289-1.553l1.088,0.627
			c-0.722,1.345-1.937,2.111-3.475,2.111c-2.24,0-3.681-1.714-3.681-3.875c0-2.225,1.296-4.064,3.65-4.064
			c2.417,0,3.697,1.999,3.568,4.242H68.89z M73.453,110.076c-0.177-1.092-1.089-1.972-2.209-1.972c-1.105,0-2.13,0.88-2.289,1.972
			H73.453z"/>
		<path fill="#FFFFFF" d="M77.854,108.04h0.032c0.528-0.718,1.216-1.118,2.147-1.118c2.081,0,2.561,1.504,2.561,3.264v4.469h-1.282
			v-4.242c0-1.217-0.095-2.308-1.584-2.308c-1.761,0-1.874,1.635-1.874,2.979v3.57h-1.281v-7.524h1.281V108.04z"/>
		<polygon fill="#FFFFFF" points="86.307,114.654 85.024,114.654 85.024,108.313 84.241,108.313 84.241,107.13 85.024,107.13 
			85.024,104.422 86.307,104.422 86.307,107.13 87.65,107.13 87.65,108.313 86.307,108.313 		"/>
		<polygon fill="#FFFFFF" points="95.079,114.654 93.797,114.654 93.797,108.313 93.014,108.313 93.014,107.13 93.797,107.13 
			93.797,104.422 95.079,104.422 95.079,107.13 96.423,107.13 96.423,108.313 95.079,108.313 		"/>
		<path fill="#FFFFFF" d="M98.969,101.445v6.564L99,108.044c0.529-0.725,1.218-1.122,2.146-1.122c2.083,0,2.562,1.504,2.562,3.264
			v4.469h-1.28v-4.242c0-1.22-0.095-2.308-1.585-2.308c-1.762,0-1.873,1.635-1.873,2.977v3.573h-1.281v-13.209H98.969z"/>
		<path fill="#FFFFFF" d="M107.293,107.945h0.031c0.449-0.593,0.834-1.023,1.667-1.023c0.431,0,0.783,0.144,1.15,0.352l-0.608,1.167
			c-0.255-0.174-0.433-0.336-0.769-0.336c-1.407,0-1.472,1.81-1.472,2.787v3.763h-1.282v-7.524h1.282V107.945z"/>
		<path fill="#FFFFFF" d="M111.888,111.164c0.016,1.394,1.009,2.512,2.465,2.512c1.088,0,1.793-0.654,2.289-1.553l1.09,0.627
			c-0.722,1.345-1.938,2.111-3.475,2.111c-2.24,0-3.683-1.714-3.683-3.875c0-2.225,1.297-4.064,3.65-4.064
			c2.417,0,3.698,1.999,3.569,4.242H111.888z M116.451,110.076c-0.178-1.092-1.09-1.972-2.21-1.972c-1.104,0-2.13,0.88-2.289,1.972
			H116.451z"/>
		<path fill="#FFFFFF" d="M126.552,114.654h-1.281v-1.043h-0.031c-0.657,0.835-1.538,1.25-2.594,1.25
			c-2.209,0-3.603-1.873-3.603-3.954c0-2.146,1.361-3.985,3.618-3.985c1.023,0,1.954,0.479,2.578,1.28h0.031v-1.075h1.281V114.654z
			 M120.355,110.813c0,1.473,0.864,2.863,2.465,2.863c1.649,0,2.515-1.326,2.515-2.849c0-1.503-0.945-2.723-2.53-2.723
			C121.316,108.104,120.355,109.4,120.355,110.813"/>
		<path fill="#FFFFFF" d="M134.572,113.611h-0.032c-0.623,0.816-1.569,1.25-2.595,1.25c-2.209,0-3.602-1.873-3.602-3.954
			c0-2.146,1.361-3.985,3.618-3.985c1.009,0,1.97,0.479,2.578,1.28h0.032v-6.757h1.28v13.209h-1.28V113.611z M129.656,110.813
			c0,1.473,0.865,2.863,2.465,2.863c1.648,0,2.516-1.326,2.516-2.849c0-1.503-0.946-2.723-2.531-2.723
			C130.617,108.104,129.656,109.4,129.656,110.813"/>
		<path fill="#FFFFFF" d="M141.215,108.875c-0.176-0.4-0.561-0.771-1.025-0.771c-0.447,0-0.928,0.354-0.928,0.834
			c0,0.688,0.863,0.944,1.745,1.312c0.88,0.37,1.743,0.898,1.743,2.161c0,1.427-1.15,2.45-2.544,2.45
			c-1.265,0-2.257-0.721-2.657-1.903l1.136-0.483c0.32,0.706,0.69,1.204,1.538,1.204c0.688,0,1.215-0.464,1.215-1.155
			c0-1.681-3.394-1.103-3.394-3.472c0-1.268,1.025-2.13,2.243-2.13c0.863,0,1.664,0.608,1.999,1.391L141.215,108.875z"/>
	</g>
</g>
</svg>
